<svg xmlns="http://www.w3.org/2000/svg" width="22.507" height="22.5" viewBox="0 0 22.507 22.5">
  <g id="Group_658" data-name="Group 658" transform="translate(-111.143 -2144.733)">
    <path id="Path_11" data-name="Path 11" d="M-1118.909,116.881c.4.056.8.1,1.191.17a11.059,11.059,0,0,1,4.887,2.112,11.087,11.087,0,0,1,2.581,2.735c.028.042.06.082.116.158.007-.092.015-.151.016-.21,0-.732,0-1.465,0-2.2a.87.87,0,0,1,.71-.86.861.861,0,0,1,.956.5,1.141,1.141,0,0,1,.085.425c.008.835.01,1.67,0,2.505a2.809,2.809,0,0,1-2.826,2.84c-.871.012-1.743.005-2.615,0a.877.877,0,0,1-.931-.874.877.877,0,0,1,.922-.882c.7,0,1.406,0,2.11,0h.281c-.272-.383-.5-.74-.761-1.066a9.278,9.278,0,0,0-5.537-3.393,9.161,9.161,0,0,0-7.435,1.606,9.166,9.166,0,0,0-3.744,5.749,9.166,9.166,0,0,0,1.609,7.5,9.3,9.3,0,0,0,5.734,3.733,9.118,9.118,0,0,0,2.511.185,2.164,2.164,0,0,1,.545.016.855.855,0,0,1,.684.895.876.876,0,0,1-.8.822,11.01,11.01,0,0,1-7.237-1.85,11.044,11.044,0,0,1-4.8-7.227c-.083-.415-.113-.84-.168-1.261-.009-.071-.026-.14-.039-.211v-1.319c.013-.078.03-.155.04-.233.053-.406.085-.816.161-1.217a10.986,10.986,0,0,1,3.049-5.8,10.975,10.975,0,0,1,6.062-3.173c.424-.073.853-.116,1.28-.173Z" transform="translate(1242.007 2027.852)" fill="#262626"/>
    <path id="Path_12" data-name="Path 12" d="M-1000.4,181.981c0,1.128,0,2.256,0,3.384a1.069,1.069,0,0,1-.327.807c-1.121,1.116-2.236,2.239-3.359,3.353a.874.874,0,0,1-1.519-.334.872.872,0,0,1,.266-.9l1.258-1.259c.6-.6,1.194-1.188,1.782-1.791a.506.506,0,0,0,.131-.32c.007-2.131,0-4.263.006-6.394a.893.893,0,0,1,.589-.91.877.877,0,0,1,1.167.868C-1000.393,179.652-1000.4,180.817-1000.4,181.981Z" transform="translate(1123.671 1970.505)" fill="#262626"/>
    <path id="Path_13" data-name="Path 13" d="M-863.277,472.182a.917.917,0,0,1-.835-.68.848.848,0,0,1,.4-.96c.286-.162.58-.311.88-.444a.867.867,0,0,1,1.127.391.856.856,0,0,1-.319,1.149c-.289.171-.594.315-.9.457A1.833,1.833,0,0,1-863.277,472.182Z" transform="translate(989.966 1694.152)" fill="#262626"/>
    <path id="Path_14" data-name="Path 14" d="M-761.41,347.2a10.021,10.021,0,0,1,.336-1.114.828.828,0,0,1,1.025-.416.837.837,0,0,1,.593.934,7.066,7.066,0,0,1-.278,1.08.847.847,0,0,1-1.017.515A.916.916,0,0,1-761.41,347.2Z" transform="translate(892.891 1811.702)" fill="#262626"/>
    <path id="Path_15" data-name="Path 15" d="M-798.158,418.557a.512.512,0,0,1-.021.166,2.786,2.786,0,0,1-1.076,1.286.814.814,0,0,1-.993-.232.837.837,0,0,1-.082-1.018,8.373,8.373,0,0,1,.7-.868.828.828,0,0,1,.954-.164A.855.855,0,0,1-798.158,418.557Z" transform="translate(929.797 1743.647)" fill="#262626"/>
  </g>
</svg>
